# xmcd
#
# Track frame offsets:
# 150
# 19485
# 37991
# 59736
# 78141
# 99962
# 127452
# 156067
# 176236
# 199120
# 215592
# 238901
#
# Disc length: 3404 seconds
#
#
# Revision: 0
# Processed by: cddbd v1.5.2PL0 Copyright (c) Steve Scherf et al.
# Submitted via: FreeRIP 2.40 
#
DISCID=ae0d4a0c
DTITLE=Madonna - Hard Candy 
DYEAR=1900
DGENRE=Pop
TTITLE0=Candy Shop
TTITLE1=4 Minutes
TTITLE2=Give it 2 me
TTITLE3=Heartbeat
TTITLE4=Miles Away
TTITLE5=She's not me
TTITLE6=Incredible
TTITLE7=Beat goes on
TTITLE8=Dance 2night
TTITLE9=Spanish Lesson
TTITLE10=Devil wouldn't recognize
TTITLE11=Voices
EXTD=
EXTT0=
EXTT1=
EXTT2=
EXTT3=
EXTT4=
EXTT5=
EXTT6=
EXTT7=
EXTT8=
EXTT9=
EXTT10=
EXTT11=
PLAYORDER=
